<svg width="26" height="32" viewBox="0 0 26 32" fill="none" xmlns="http://www.w3.org/2000/svg">
<g clip-path="url(#clip0)">
<path d="M9.74206 4.04333H2.61626C1.92213 4.04538 1.25707 4.32634 0.766719 4.82471C0.276365 5.32307 0.000670071 5.99822 7.10366e-07 6.70232C-0.0195069 7.38477 0.228682 8.0472 0.690106 8.54424C1.15153 9.04129 1.7885 9.33236 2.46125 9.35358H2.53876H9.8183L9.74206 4.04333Z" fill="#073042"/>
<path d="M25.9746 27.6945H2.60798C1.91637 27.6903 1.25439 27.4092 0.765996 26.9125C0.277604 26.4158 0.00230486 25.7435 -2.69564e-05 25.042V6.6875C-0.00178335 7.03708 0.0643687 7.38358 0.194651 7.70722C0.324933 8.03086 0.516793 8.3253 0.759273 8.57371C1.00175 8.82213 1.2901 9.01965 1.60785 9.15501C1.9256 9.29037 2.26653 9.36091 2.61115 9.3626C2.6696 9.3626 2.72742 9.3626 2.78523 9.35744H22.1664C22.1664 9.35744 25.9746 9.02233 25.9746 11.9352V27.6945Z" fill="#4285F4"/>
<path d="M13.6353 14.9286C13.327 14.9343 13.0286 15.0396 12.7834 15.2294C12.5383 15.4192 12.3594 15.6834 12.2726 15.9835C12.1859 16.2836 12.1959 16.604 12.3013 16.898C12.4066 17.1919 12.6018 17.4441 12.8583 17.6176C13.1148 17.7912 13.4192 17.8772 13.7273 17.8629C14.0353 17.8487 14.3308 17.7351 14.5707 17.5386C14.8106 17.3421 14.9823 17.073 15.0609 16.7706C15.1395 16.4682 15.1208 16.1482 15.0076 15.8573C14.8983 15.5799 14.7086 15.3426 14.4636 15.1768C14.2186 15.011 13.9298 14.9245 13.6353 14.9286Z" fill="black"/>
<path d="M15.0743 18.2939C15.465 17.9971 15.7548 17.5843 15.9037 17.1129C16.0526 16.6414 16.0531 16.1346 15.9052 15.6628C15.7573 15.191 15.4683 14.7777 15.0783 14.48C14.6883 14.1824 14.2166 14.0153 13.7287 14.0019H13.805C13.9427 13.9884 14.0814 13.9884 14.2192 14.0019V12.5248C14.2227 12.4413 14.2041 12.3583 14.1655 12.2845C14.1269 12.2106 14.0695 12.1485 13.9994 12.1046C13.9289 12.0623 13.8485 12.0399 13.7665 12.0399C13.6846 12.0399 13.6042 12.0623 13.5337 12.1046C13.4635 12.1485 13.4062 12.2106 13.3676 12.2845C13.3289 12.3583 13.3104 12.4413 13.3139 12.5248V14.0277C12.8542 14.1016 12.4263 14.3116 12.084 14.6315C11.7417 14.9513 11.5002 15.3666 11.3899 15.8252C11.2796 16.2839 11.3053 16.7653 11.464 17.2092C11.6226 17.653 11.907 18.0393 12.2815 18.3197L7.97333 27.6603H10.7834L12.77 23.3676C12.8546 23.19 12.9868 23.0402 13.1516 22.9354C13.3164 22.8306 13.5069 22.7752 13.7014 22.7754C13.8948 22.7749 14.0843 22.8303 14.2477 22.9352C14.4111 23.0401 14.5416 23.1901 14.6239 23.3676L16.6716 27.6603H19.5172L15.0743 18.2939ZM13.6353 17.8731C13.3458 17.8742 13.0625 17.7881 12.8214 17.6257C12.5802 17.4633 12.392 17.2318 12.2807 16.9608C12.1694 16.6897 12.14 16.3912 12.1962 16.1031C12.2524 15.815 12.3917 15.5504 12.5964 15.3428C12.8011 15.1351 13.062 14.9938 13.346 14.9368C13.6299 14.8798 13.9242 14.9097 14.1915 15.0226C14.4587 15.1355 14.6869 15.3264 14.847 15.571C15.0071 15.8156 15.092 16.103 15.0909 16.3966C15.0909 16.7882 14.9375 17.1638 14.6645 17.4406C14.3916 17.7175 14.0214 17.8731 13.6353 17.8731Z" fill="#3870B2"/>
<path d="M8.20206 5.34888H18.197V7.21133H8.20206V5.34888Z" fill="white"/>
<path d="M12.857 14.9287C13.1913 14.9312 13.5143 15.051 13.7713 15.2678C14.0283 15.4846 14.2034 15.785 14.2668 16.1179C14.3301 16.4508 14.2779 16.7957 14.1189 17.094C13.9599 17.3922 13.704 17.6254 13.3947 17.7539C13.0853 17.8825 12.7417 17.8984 12.4221 17.7989C12.1026 17.6995 11.8268 17.4909 11.6417 17.2085C11.4566 16.9262 11.3737 16.5876 11.4069 16.2502C11.4401 15.9128 11.5875 15.5975 11.824 15.3579C12.0997 15.0832 12.4706 14.9292 12.857 14.9287ZM13.4288 14.0703V12.5236C13.4323 12.4401 13.4137 12.3571 13.3751 12.2832C13.3365 12.2094 13.2791 12.1473 13.209 12.1034C13.1385 12.061 13.0581 12.0387 12.9761 12.0387C12.8942 12.0387 12.8138 12.061 12.7433 12.1034C12.6732 12.1474 12.616 12.2095 12.5773 12.2833C12.5387 12.3572 12.5201 12.4401 12.5235 12.5236V14.0264C12.0638 14.1003 11.6359 14.3104 11.2936 14.6302C10.9513 14.9501 10.7098 15.3654 10.5995 15.824C10.4891 16.2827 10.5149 16.7641 10.6736 17.2079C10.8322 17.6518 11.1166 18.0381 11.4911 18.3185L6.08636 30.1241C5.98558 30.3317 5.94106 30.5627 5.95736 30.7935C5.97366 31.0243 6.05019 31.2466 6.17911 31.4375C6.31012 31.6266 6.48768 31.7776 6.69411 31.8755C6.90054 31.9735 7.12864 32.0148 7.35573 31.9955C7.58277 31.9733 7.7998 31.8899 7.98435 31.7539C8.16889 31.6179 8.31422 31.4343 8.40529 31.2222L12.0076 23.3677C12.0929 23.1907 12.2254 23.0414 12.3899 22.9367C12.5545 22.8321 12.7447 22.7762 12.939 22.7754C13.1323 22.7749 13.3218 22.8304 13.4852 22.9353C13.6486 23.0402 13.7791 23.1902 13.8614 23.3677L17.5597 31.1797C17.633 31.333 17.7354 31.4701 17.861 31.5833C17.9866 31.6965 18.1329 31.7834 18.2916 31.8393C18.4504 31.8951 18.6184 31.9186 18.7861 31.9085C18.9538 31.8985 19.1179 31.855 19.269 31.7806C19.4201 31.7062 19.5554 31.6024 19.6669 31.475C19.7785 31.3476 19.8642 31.1992 19.9192 31.0381C19.9743 30.8771 19.9975 30.7067 19.9875 30.5366C19.9776 30.3665 19.9348 30.2 19.8614 30.0467L14.2947 18.294C14.6375 18.0165 14.8981 17.6483 15.0478 17.2301C15.1974 16.8119 15.2303 16.36 15.1427 15.924C15.0552 15.4881 14.8507 15.0851 14.5517 14.7596C14.2528 14.4341 13.871 14.1987 13.4485 14.0793" fill="#073042"/>
<path d="M16.7497 6.98774C16.6141 6.9908 16.4807 6.95248 16.3668 6.87775C16.2529 6.80301 16.1637 6.6953 16.1109 6.56857C16.058 6.44184 16.0439 6.30193 16.0704 6.16696C16.0968 6.032 16.1626 5.90821 16.2592 5.81162C16.3551 5.71536 16.4769 5.64993 16.6093 5.62354C16.7416 5.59715 16.8787 5.61096 17.0034 5.66325C17.1281 5.71554 17.2348 5.80398 17.3101 5.9175C17.3855 6.03102 17.4261 6.16456 17.427 6.3014C17.427 6.39158 17.4094 6.48089 17.3754 6.5642C17.3414 6.64751 17.2915 6.7232 17.2286 6.78694C17.1657 6.85068 17.091 6.90122 17.0088 6.93568C16.9267 6.97013 16.8386 6.98782 16.7497 6.98774ZM9.2262 6.98774C9.09123 6.98922 8.9589 6.94976 8.8462 6.87442C8.73349 6.79908 8.64555 6.69129 8.59366 6.5649C8.54177 6.4385 8.52829 6.29926 8.55497 6.16504C8.58164 6.03082 8.64724 5.90775 8.74336 5.81162C8.80047 5.741 8.87073 5.68247 8.95014 5.6394C9.02954 5.59632 9.11654 5.56952 9.20615 5.56055C9.29576 5.55157 9.38624 5.56059 9.47242 5.58708C9.5586 5.61357 9.63879 5.65702 9.70842 5.71495C9.77804 5.77288 9.83573 5.84415 9.8782 5.9247C9.92067 6.00525 9.94709 6.09349 9.95593 6.18439C9.96478 6.27529 9.9559 6.36707 9.92978 6.45449C9.90366 6.5419 9.86082 6.62324 9.80371 6.69387C9.77521 6.72923 9.74328 6.76162 9.70842 6.79053C9.64512 6.85444 9.56984 6.90483 9.48701 6.9387C9.40418 6.97257 9.3155 6.98925 9.2262 6.98774ZM16.9956 2.82461L18.3495 0.440157C18.3751 0.375257 18.3769 0.303182 18.3546 0.237036C18.3323 0.17089 18.2873 0.115068 18.2278 0.0797186C18.1683 0.0443695 18.0984 0.0318418 18.0305 0.0444133C17.9627 0.0569848 17.9016 0.0938206 17.8584 0.148223L16.4873 2.56683C15.3885 2.06626 14.1976 1.80745 12.993 1.80745C11.7885 1.80745 10.5976 2.06626 9.49876 2.56683L8.11756 0.145645C8.0925 0.101867 8.05668 0.0654325 8.01358 0.0399041C7.97048 0.0143756 7.9216 0.000626281 7.87169 0C7.82194 0.00249342 7.7735 0.0170124 7.7304 0.042347C7.6873 0.0676815 7.65079 0.103098 7.62392 0.145645C7.59866 0.190025 7.58536 0.240367 7.58536 0.291612C7.58536 0.342857 7.59866 0.3932 7.62392 0.437579L8.98669 2.82203C7.81279 3.47508 6.81786 4.4146 6.09185 5.55566C5.36583 6.69672 4.93163 8.00333 4.82849 9.35737H21.1627C21.0579 8.00298 20.6221 6.69643 19.8945 5.55583C19.1669 4.41523 18.1706 3.47653 16.9956 2.82461Z" fill="#3DDC84"/>
<path d="M23.6303 14.4479H22.554C22.518 14.4479 22.4834 14.4624 22.4579 14.4883C22.4324 14.5142 22.4181 14.5492 22.4181 14.5858V31.7977C22.418 31.8327 22.4311 31.8664 22.4547 31.8919C22.4784 31.9174 22.5107 31.9328 22.5451 31.935H23.6538C24.2761 31.9333 24.8724 31.6813 25.3119 31.2343C25.7513 30.7873 25.9981 30.1818 25.9981 29.5505V12.0615C25.9981 12.6939 25.7505 13.3004 25.3096 13.7476C24.8688 14.1948 24.2709 14.446 23.6474 14.446L23.6303 14.4479Z" fill="#073042"/>
</g>
<defs>
<clipPath id="clip0">
<rect width="26" height="32" fill="white"/>
</clipPath>
</defs>
</svg>
