<svg width="24" height="24" viewBox="0 0 24 24" fill="none" xmlns="http://www.w3.org/2000/svg">
<g clip-path="url(#clip0)">
<path d="M8.71653 18.555C8.71653 18.555 7.79403 19.116 9.35778 19.2765C11.2403 19.5165 12.243 19.4767 14.3265 19.0762C14.7453 19.3326 15.1881 19.5474 15.6488 19.7175C10.9613 21.7215 5.02878 19.5975 8.71578 18.555H8.71653ZM8.11653 15.9502C8.11653 15.9502 7.11453 16.7115 8.67753 16.8727C10.7213 17.073 12.324 17.1127 15.09 16.5525C15.359 16.8253 15.6884 17.0311 16.0515 17.1532C10.401 18.8362 4.06953 17.3137 8.11653 15.951V15.9502ZM19.1768 20.5177C19.1768 20.5177 19.8578 21.0787 18.4155 21.5197C15.7305 22.3222 7.15503 22.5622 4.75053 21.5197C3.90903 21.1597 5.51178 20.6385 6.02553 20.5582C6.54678 20.4382 6.82803 20.4382 6.82803 20.4382C5.90553 19.797 0.696781 21.7605 4.18353 22.3207C13.761 23.8837 21.6555 21.6397 19.1708 20.5177H19.1768ZM9.15003 13.2247C9.15003 13.2247 4.78203 14.2672 7.58703 14.6272C8.78928 14.7877 11.1533 14.7472 13.3575 14.5875C15.1605 14.427 16.965 14.1075 16.965 14.1075C16.965 14.1075 16.3238 14.388 15.8828 14.6685C11.4353 15.831 2.89878 15.3097 5.34378 14.1075C7.42728 13.1055 9.15078 13.2262 9.15078 13.2262L9.15003 13.2247ZM16.965 17.5927C21.453 15.2677 19.3695 13.0252 17.9265 13.305C17.5665 13.3852 17.4053 13.4655 17.4053 13.4655C17.4053 13.4655 17.5253 13.2255 17.8058 13.1452C20.6513 12.1432 22.8953 16.1505 16.8833 17.7127C16.8833 17.7127 16.923 17.673 16.9635 17.5927H16.965ZM9.59253 23.9242C13.92 24.2047 20.5328 23.7637 20.6925 21.7192C20.6925 21.7192 20.3723 22.5217 17.1263 23.1217C13.4393 23.8027 8.87103 23.7217 6.18603 23.2822C6.18603 23.2822 6.74703 23.7622 9.59253 23.9235V23.9242Z" fill="#4E7896"/>
<path d="M14.247 0.000732422C14.247 0.000732422 16.7317 2.52523 11.883 6.33223C7.9957 9.41773 11.0017 11.181 11.883 13.185C9.59845 11.1412 7.95595 9.33748 9.07795 7.65523C10.7205 5.16973 15.249 3.97498 14.247 0.000732422ZM12.972 11.502C14.1345 12.8242 12.6517 14.0265 12.6517 14.0265C12.6517 14.0265 15.6172 12.504 14.2545 10.62C13.0125 8.81698 12.0495 7.93498 17.2597 4.92973C17.2597 4.92973 9.04495 6.97348 12.972 11.502Z" fill="#F58219"/>
</g>
<defs>
<clipPath id="clip0">
<rect width="24" height="24" fill="white"/>
</clipPath>
</defs>
</svg>
