<svg width="30" height="30" viewBox="0 0 30 30" fill="none" xmlns="http://www.w3.org/2000/svg">
<path d="M26.4307 7.10957L16.0955 1.10839C15.4437 0.737144 14.595 0.737144 13.938 1.10839L3.49242 7.10957C2.81977 7.49652 2.34375 8.22378 2.34375 9.00167V20.9881C2.34375 21.766 2.83219 22.4935 3.50484 22.8825L6.26461 24.45C7.58367 25.0997 8.04984 25.0997 8.65008 25.0997C10.6031 25.0997 11.7188 23.9187 11.7188 21.8588V10.0252C11.7188 9.85808 11.6318 9.60941 11.4677 9.60941H10.1498C9.98297 9.60941 9.60938 9.85808 9.60938 10.025V21.8585C9.60938 22.7717 8.78344 23.6803 7.23984 22.9085L4.3882 21.2649C4.28883 21.211 4.21875 21.1025 4.21875 20.9881V9.00167C4.21875 8.88871 4.34883 8.77527 4.44891 8.71738L14.8608 2.72652C14.958 2.67144 15.101 2.67144 15.198 2.72652L25.4829 8.71597C25.5813 8.77527 25.5466 8.88519 25.5466 9.00167V20.9881C25.5466 21.1025 25.5895 21.2138 25.4923 21.2689L15.1596 27.2632C15.071 27.3164 14.9611 27.3164 14.8641 27.2632L12.214 25.6814C12.1341 25.635 12.0391 25.6184 11.9625 25.6613C11.2252 26.0792 11.0892 26.1347 10.3976 26.3745C10.2274 26.4338 9.97641 26.5367 10.4937 26.8266L13.962 28.8783C14.2941 29.0705 14.6714 29.1703 15.0511 29.1703C15.4359 29.1703 15.8128 29.0705 16.1449 28.8783L26.4305 22.8825C27.1031 22.4907 27.4219 21.766 27.4219 20.9881V9.00167C27.4219 8.22378 27.1031 7.49839 26.4307 7.10957ZM18.2602 19.0887C15.5119 19.0887 14.9065 18.3305 14.7047 16.9639C14.6813 16.8167 14.5563 16.6407 14.4066 16.6407H13.0634C12.8972 16.6407 12.7636 16.8422 12.7636 17.0077C12.7636 18.7575 13.7149 20.8777 18.2604 20.8777C21.5508 20.8777 23.4373 19.5992 23.4373 17.3365C23.4373 15.0931 21.9216 14.5043 18.7305 14.082C15.5051 13.6557 15.1774 13.4403 15.1774 12.6846C15.1774 12.0617 15.4549 11.2308 17.8432 11.2308C19.9772 11.2308 20.7638 11.6888 21.0874 13.1271C21.1151 13.2624 21.2386 13.3594 21.378 13.3594H22.7266C22.8096 13.3594 22.8888 13.3259 22.947 13.2666C23.0032 13.2028 23.033 13.1229 23.0255 13.0371C22.8166 10.5603 21.1711 9.40597 17.843 9.40597C14.8826 9.40597 13.1166 10.6561 13.1166 12.7517C13.1166 15.0246 14.8737 15.6528 17.7155 15.9338C21.1151 16.2671 21.3795 16.7639 21.3795 17.4326C21.3795 18.5939 20.4471 19.0887 18.2602 19.0887Z" fill="#83CD29"/>
</svg>
