<svg width="44" height="31" viewBox="0 0 44 31" fill="none" xmlns="http://www.w3.org/2000/svg">
<path d="M34.8227 15.5599C34.8227 17.2524 32.6956 18.8563 29.4344 19.8509C30.187 23.1628 29.8525 25.7978 28.3787 26.6414C28.039 26.8393 27.6418 26.933 27.208 26.933V25.7718C27.4484 25.7718 27.6418 25.7249 27.8038 25.6364C28.5146 25.2302 28.8229 23.6836 28.5825 21.6943C28.525 21.2048 28.431 20.6893 28.316 20.1633C27.2916 20.4133 26.1732 20.606 24.9973 20.7309C24.2917 21.6943 23.5601 22.5692 22.8232 23.3347C24.5269 24.9125 26.1262 25.777 27.2132 25.777V26.9382C25.776 26.9382 23.8945 25.9176 21.9922 24.147C20.0898 25.9072 18.2084 26.9174 16.7711 26.9174V25.7561C17.853 25.7561 19.4574 24.8969 21.1612 23.3295C20.4295 22.564 19.6979 21.6943 19.0028 20.7309C17.8216 20.606 16.7032 20.4133 15.6788 20.1581C15.5586 20.6789 15.4698 21.184 15.4071 21.6683C15.1614 23.6575 15.4646 25.2041 16.1701 25.6155C16.3269 25.7093 16.5307 25.7509 16.7711 25.7509V26.9122C16.3321 26.9122 15.9349 26.8185 15.59 26.6206C14.1214 25.777 13.7922 23.1472 14.55 19.8457C11.2992 18.8458 9.18259 17.2472 9.18259 15.5599C9.18259 13.8675 11.3097 12.2636 14.5709 11.269C13.8183 7.95704 14.1528 5.32207 15.6266 4.47846C15.9663 4.28058 16.3635 4.18684 16.8025 4.18684C18.2397 4.18684 20.1212 5.20751 22.0235 6.97804C23.9259 5.21792 25.8074 4.20767 27.2446 4.20767C27.6836 4.20767 28.0808 4.30141 28.4257 4.49929C29.8943 5.3429 30.2236 7.97267 29.4658 11.2742C32.706 12.2688 34.8227 13.8727 34.8227 15.5599ZM28.0181 19.0333C27.8247 18.3615 27.5843 17.669 27.3125 16.9764C27.0983 17.393 26.8735 17.8096 26.6279 18.2262C26.3875 18.6427 26.1314 19.0489 25.8753 19.4447C26.6174 19.3353 27.3334 19.1999 28.0181 19.0333ZM25.6244 13.4874C25.2168 12.7844 24.7987 12.1178 24.3649 11.4981C23.5862 11.4304 22.797 11.394 22.0026 11.394C21.2135 11.394 20.4243 11.4304 19.6508 11.4929C19.217 12.1126 18.7937 12.7739 18.3861 13.4717C17.9889 14.1539 17.6282 14.8465 17.299 15.5443C17.623 16.2421 17.9889 16.9399 18.3808 17.6221C18.7885 18.3251 19.2066 18.9917 19.6404 19.6113C20.4191 19.679 21.2082 19.7155 22.0026 19.7155C22.7918 19.7155 23.581 19.679 24.3545 19.6165C24.7882 18.9969 25.2116 18.3355 25.6192 17.6377C26.0164 16.9555 26.377 16.2629 26.7063 15.5651C26.377 14.8673 26.0164 14.1695 25.6244 13.4874ZM27.3125 14.1643C27.5947 13.4665 27.8352 12.7687 28.0338 12.0918C27.3491 11.9251 26.6279 11.7845 25.8805 11.6752C26.1366 12.0761 26.3927 12.4875 26.6331 12.9093C26.8735 13.3259 27.0983 13.7477 27.3125 14.1643ZM22.0131 8.60798C21.527 9.10789 21.041 9.66509 20.5602 10.2744C21.0305 10.2535 21.5114 10.2379 21.9974 10.2379C22.4887 10.2379 22.9747 10.2483 23.4503 10.2744C22.9799 9.66509 22.4939 9.10789 22.0131 8.60798ZM18.1247 11.6752C17.3826 11.7845 16.6666 11.9199 15.982 12.0866C16.1753 12.7583 16.4157 13.4509 16.6875 14.1435C16.9018 13.7269 17.1265 13.3103 17.3722 12.8937C17.6178 12.4771 17.8687 12.0709 18.1247 11.6752ZM21.987 22.5119C22.473 22.012 22.959 21.4548 23.4399 20.8455C22.9695 20.8663 22.4887 20.882 22.0026 20.882C21.5114 20.882 21.0253 20.8715 20.5497 20.8455C21.0201 21.4548 21.5061 22.012 21.987 22.5119ZM18.1195 19.4447C17.8634 19.0437 17.6073 18.6323 17.3669 18.2105C17.1265 17.7939 16.9018 17.3773 16.6875 16.9607C16.4053 17.6585 16.1649 18.3563 15.9663 19.0333C16.6509 19.1947 17.3722 19.3353 18.1195 19.4447ZM13.3897 12.925C11.5396 13.7113 10.3428 14.7424 10.3428 15.5599C10.3428 16.3775 11.5396 17.4138 13.3897 18.1949C13.8392 18.3876 14.3305 18.5594 14.8374 18.7209C15.1353 17.7002 15.5273 16.6379 16.0133 15.5495C15.5325 14.4664 15.1458 13.4093 14.8531 12.3938C14.3357 12.5552 13.8444 12.7323 13.3897 12.925ZM16.2015 5.4835C15.4907 5.88968 15.1823 7.4363 15.4228 9.42555C15.4802 9.91505 15.5743 10.4306 15.6893 10.9565C16.7136 10.7066 17.8321 10.5139 19.008 10.3889C19.7135 9.42555 20.4452 8.5507 21.1821 7.7852C19.4783 6.20734 17.8791 5.3429 16.792 5.3429C16.5569 5.34811 16.3583 5.39498 16.2015 5.4835ZM28.5982 9.45159C28.8438 7.46234 28.5407 5.91572 27.8352 5.50433C27.6784 5.4106 27.4745 5.36894 27.2341 5.36894C26.1523 5.36894 24.5478 6.22817 22.8441 7.79561C23.5757 8.56111 24.3074 9.43076 25.0025 10.3941C26.1837 10.5191 27.3021 10.7118 28.3264 10.967C28.4466 10.441 28.5407 9.93588 28.5982 9.45159ZM30.6103 12.925C30.1609 12.7323 29.6696 12.5604 29.1626 12.399C28.8647 13.4197 28.4728 14.482 27.9867 15.5704C28.4675 16.6535 28.8543 17.7106 29.147 18.7261C29.6644 18.5646 30.1556 18.3876 30.6155 18.1949C32.4656 17.4086 33.6625 16.3775 33.6625 15.5599C33.6572 14.7424 32.4604 13.7061 30.6103 12.925Z" fill="#61DAFB"/>
<path d="M21.9974 13.1801C23.3165 13.1801 24.3858 14.2456 24.3858 15.5599C24.3858 16.8742 23.3165 17.9397 21.9974 17.9397C20.6783 17.9397 19.609 16.8742 19.609 15.5599C19.609 14.2456 20.6783 13.1801 21.9974 13.1801Z" fill="#61DAFB"/>
</svg>
