<svg width="16" height="16" viewBox="0 0 16 16" fill="none" xmlns="http://www.w3.org/2000/svg">
<path d="M16 0H0V16H16V0Z" fill="#D0FFFF"/>
<path d="M9.57032 4H10.6258V9.63828C10.6258 10.4003 10.3961 10.9964 9.93673 11.4266C9.481 11.8568 8.87214 12.0719 8.11016 12.0719C7.31902 12.0719 6.70287 11.8695 6.26172 11.4648C5.82058 11.0602 5.60001 10.4932 5.60001 9.76406H6.65001C6.65001 10.2198 6.77396 10.5753 7.02188 10.8305C7.27344 11.0857 7.6362 11.2133 8.11016 11.2133C8.54402 11.2133 8.89402 11.0766 9.16016 10.8031C9.42995 10.5297 9.56667 10.1469 9.57032 9.65469V4Z" fill="#25323D"/>
</svg>
